<svg width="49" height="48" viewBox="0 0 49 48" fill="none" xmlns="http://www.w3.org/2000/svg">
<path d="M18.39 34.173C17.4834 35.4956 16.5122 36.7728 15.48 38C8.10005 37.79 5.30005 33 5.30005 33C5.40494 26.2131 7.04963 19.5386 10.11 13.48C12.8002 11.3754 16.0782 10.1593 19.49 9.99999L20.49 12.31C21.9183 12.1117 23.3581 12.0081 24.8 12C26.2484 12.0048 27.6949 12.105 29.13 12.3L30.13 9.98999C33.5453 10.1579 36.8235 11.3847 39.51 13.5C42.5606 19.5542 44.1983 26.2214 44.3 33C44.3 33 41.5 37.79 34.12 38C33.1035 36.7787 32.1489 35.5071 31.26 34.19M37.72 31.29C33.88 33.235 30.165 35.18 24.8 35.18C19.435 35.18 15.72 33.235 11.88 31.29" stroke="white" stroke-width="1.5" stroke-linecap="round" stroke-linejoin="round"/>
<path d="M18.6471 29.58C20.4973 29.58 21.9971 28.0802 21.9971 26.23C21.9971 24.3799 20.4973 22.88 18.6471 22.88C16.797 22.88 15.2971 24.3799 15.2971 26.23C15.2971 28.0802 16.797 29.58 18.6471 29.58Z" stroke="white" stroke-width="1.5" stroke-linecap="round" stroke-linejoin="round"/>
<path d="M30.953 29.58C32.8032 29.58 34.303 28.0802 34.303 26.23C34.303 24.3799 32.8032 22.88 30.953 22.88C29.1029 22.88 27.603 24.3799 27.603 26.23C27.603 28.0802 29.1029 29.58 30.953 29.58Z" stroke="white" stroke-width="1.5" stroke-linecap="round" stroke-linejoin="round"/>
</svg>
