<svg width="49" height="48" viewBox="0 0 49 48" fill="none" xmlns="http://www.w3.org/2000/svg">
<path d="M26.211 10.922C28.5367 10.922 30.422 9.03667 30.422 6.711C30.422 4.38533 28.5367 2.5 26.211 2.5C23.8853 2.5 22 4.38533 22 6.711C22 9.03667 23.8853 10.922 26.211 10.922Z" stroke="white" stroke-width="1.2" stroke-linecap="round" stroke-linejoin="round"/>
<path d="M41.4839 26.244C43.8096 26.244 45.6949 24.3587 45.6949 22.033C45.6949 19.7074 43.8096 17.822 41.4839 17.822C39.1583 17.822 37.2729 19.7074 37.2729 22.033C37.2729 24.3587 39.1583 26.244 41.4839 26.244Z" stroke="white" stroke-width="1.2" stroke-linecap="round" stroke-linejoin="round"/>
<path d="M31.628 45.5C33.9537 45.5 35.839 43.6147 35.839 41.289C35.839 38.9633 33.9537 37.078 31.628 37.078C29.3023 37.078 27.417 38.9633 27.417 41.289C27.417 43.6147 29.3023 45.5 31.628 45.5Z" stroke="white" stroke-width="1.2" stroke-linecap="round" stroke-linejoin="round"/>
<path d="M10.264 42.078C12.5896 42.078 14.475 40.1927 14.475 37.867C14.475 35.5413 12.5896 33.656 10.264 33.656C7.93831 33.656 6.05298 35.5413 6.05298 37.867C6.05298 40.1927 7.93831 42.078 10.264 42.078Z" stroke="white" stroke-width="1.2" stroke-linecap="round" stroke-linejoin="round"/>
<path d="M6.91583 20.708C9.2415 20.708 11.1268 18.8227 11.1268 16.497C11.1268 14.1713 9.2415 12.286 6.91583 12.286C4.59016 12.286 2.70483 14.1713 2.70483 16.497C2.70483 18.8227 4.59016 20.708 6.91583 20.708Z" stroke="white" stroke-width="1.2" stroke-linecap="round" stroke-linejoin="round"/>
<path d="M24.3068 10.468L12.2868 34.174M37.7418 23.966L14.1188 36.172M30.9758 37.13L26.8628 10.872M9.88884 19.48L28.6548 38.306M37.3248 21.367L11.0428 17.339M22.3898 8.64905L10.6708 14.593M9.57584 33.713L7.55884 20.66M27.4158 40.673L14.3788 38.766M39.5648 25.782L33.5458 37.54M29.1838 9.69405L38.5108 19.051" stroke="white" stroke-width="1.2" stroke-linecap="round" stroke-linejoin="round"/>
</svg>
