<svg width="49" height="48" viewBox="0 0 49 48" fill="none" xmlns="http://www.w3.org/2000/svg">
<path d="M24.2001 2.5C19.093 2.49738 14.1518 4.31278 10.2612 7.62113C6.37067 10.9295 3.7848 15.5147 2.96668 20.5558C2.14855 25.5969 3.15161 30.7646 5.79623 35.1335C8.44085 39.5025 12.5543 42.7874 17.4001 44.4C18.4801 44.6 18.8701 43.94 18.8701 43.4V39.75C12.8701 41.05 11.6301 36.87 11.6301 36.87C11.2332 35.5474 10.3697 34.4139 9.20006 33.68C7.25006 32.35 9.35006 32.37 9.35006 32.37C10.0312 32.4653 10.6816 32.7149 11.2518 33.0996C11.8219 33.4843 12.2967 33.994 12.6401 34.59C14.5601 37.88 17.6401 36.93 18.9001 36.38C18.9995 35.2876 19.4853 34.2664 20.2701 33.5C15.4901 32.96 10.4701 31.12 10.4701 22.88C10.4384 20.7424 11.2337 18.6751 12.6901 17.11C12.0284 15.2565 12.1036 13.2197 12.9001 11.42C12.9001 11.42 14.7001 10.84 18.8101 13.62C22.3325 12.66 26.0476 12.66 29.5701 13.62C33.6801 10.84 35.4801 11.42 35.4801 11.42C36.2705 13.2211 36.3456 15.2556 35.6901 17.11C37.1436 18.6761 37.9355 20.7436 37.9001 22.88C37.9001 31.14 32.9001 32.95 28.0901 33.49C28.6062 34.0129 29.0037 34.6408 29.2556 35.331C29.5075 36.0212 29.608 36.7576 29.5501 37.49V43.39C29.5501 44.1 29.9401 44.63 31.0301 44.39C35.8709 42.7711 39.9778 39.4828 42.6162 35.1132C45.2546 30.7437 46.2523 25.578 45.4309 20.5402C44.6095 15.5024 42.0226 10.9212 38.1329 7.616C34.2431 4.31084 29.3044 2.49737 24.2001 2.5Z" stroke="white" stroke-width="1.2" stroke-linecap="round" stroke-linejoin="round"/>
</svg>
