<svg width="58" height="48" viewBox="0 0 58 48" fill="none" xmlns="http://www.w3.org/2000/svg">
<path d="M49.3017 21.8922L38.0131 17.7137L33.7978 3.89812C33.6354 3.36534 33.1432 3 32.5851 3C32.0282 3 31.5347 3.36534 31.3724 3.89812L27.1583 17.7137L15.8684 21.8922C15.3699 22.0774 15.04 22.5518 15.04 23.0821C15.04 23.6123 15.3699 24.088 15.8684 24.2707L27.1532 28.448L31.3685 42.6847C31.5284 43.2238 32.0231 43.5929 32.5851 43.5929C33.147 43.5929 33.6418 43.2238 33.8016 42.6847L38.0182 28.448L49.303 24.2707C49.8003 24.088 50.1301 23.6123 50.1301 23.0821C50.1301 22.5518 49.8003 22.0774 49.3017 21.8922Z" stroke="white" stroke-width="1.2"/>
<path d="M23.9311 35.8468L20.997 34.761L19.8553 30.5748C19.7044 30.0217 19.2033 29.6386 18.6312 29.6386C18.0591 29.6386 17.558 30.0217 17.4071 30.5748L16.2654 34.761L13.3313 35.8468C12.8327 36.0308 12.5029 36.5065 12.5029 37.0354C12.5029 37.5657 12.8327 38.0414 13.3313 38.2253L16.2502 39.3074L17.4007 43.902C17.5415 44.4652 18.0489 44.861 18.6312 44.861C19.2122 44.861 19.7196 44.4652 19.8617 43.902L21.0122 39.3074L23.9311 38.2253C24.4296 38.0414 24.7595 37.5657 24.7595 37.0354C24.7595 36.5065 24.4296 36.0308 23.9311 35.8468Z" stroke="white" stroke-width="1.2"/>
<path d="M18.4282 8.36707L15.4281 7.25711L14.3181 4.25704C14.1329 3.75851 13.6585 3.42869 13.1283 3.42869C12.5968 3.42869 12.1223 3.75851 11.9384 4.25704L10.8272 7.25711L7.82835 8.36707C7.32982 8.55228 7 9.02671 7 9.55696C7 10.0872 7.32982 10.5616 7.82835 10.7468L10.8272 11.8568L11.9384 14.8569C12.1223 15.3554 12.5968 15.6852 13.1283 15.6852C13.6585 15.6852 14.1329 15.3554 14.3181 14.8569L15.4281 11.8568L18.4282 10.7468C18.9267 10.5616 19.2565 10.0872 19.2565 9.55696C19.2565 9.02671 18.9267 8.55228 18.4282 8.36707Z" stroke="white" stroke-width="1.2"/>
</svg>
