<svg width="63" height="62" viewBox="0 0 63 62" fill="none" xmlns="http://www.w3.org/2000/svg">
<path d="M6.05591 17.1262V44.8725C6.05591 45.2151 6.19199 45.5436 6.43423 45.7858C6.67646 46.0281 7.005 46.1642 7.34757 46.1642H30.2721C30.5141 46.164 30.7512 46.0958 30.9563 45.9674C31.1615 45.8391 31.3264 45.6556 31.4324 45.438C31.5383 45.2205 31.5811 44.9775 31.5556 44.7368C31.5302 44.4962 31.4377 44.2675 31.2886 44.0768L23.4689 34.0884L23.5942 34.0148C29.3963 30.6603 30.1597 22.5874 25.0899 18.2048C23.3192 16.6747 21.057 15.8329 18.7168 15.8333H7.34757C7.005 15.8333 6.67646 15.9693 6.43423 16.2116C6.19199 16.4538 6.05591 16.7836 6.05591 17.1262ZM34.4687 17.1262V44.8725C34.4687 45.2151 34.6048 45.5436 34.847 45.7858C35.0893 46.0281 35.4178 46.1642 35.7604 46.1642H46.5587C47.9421 46.1643 49.3093 45.8662 50.5671 45.2903C51.825 44.7143 52.9439 43.874 53.8476 42.8265L54.093 42.5423C55.7101 40.6681 56.543 38.243 56.4187 35.7707C56.2943 33.2984 55.2222 30.969 53.4252 29.2666L53.8101 28.3314C54.6875 26.2018 54.72 23.8178 53.9009 21.6651C53.0818 19.5123 51.4728 17.7529 49.4017 16.7452C48.1682 16.1451 46.8144 15.8333 45.4427 15.8333H35.7604C35.4178 15.8333 35.0893 15.9693 34.847 16.2116C34.6048 16.4538 34.4687 16.7836 34.4687 17.1262Z" stroke="white" stroke-linecap="round" stroke-linejoin="round"/>
</svg>
